<svg version="1.1" id="Layer_1" xmlns="http://www.w3.org/2000/svg" xmlns:xlink="http://www.w3.org/1999/xlink" x="0px" y="0px"
	 width="100%" viewBox="0 0 1024 1024" enable-background="new 0 0 1024 1024" xml:space="preserve">
<path fill="#000000" opacity="1.000000" stroke="none" 
	d="
M526.513672,267.136780 
	C581.550354,273.115570 624.001770,314.432526 634.677429,364.376221 
	C635.821899,369.730225 636.690186,375.178589 637.159241,380.628571 
	C637.445801,383.957886 638.812134,384.945557 641.860291,384.810242 
	C645.020447,384.669952 648.192261,384.749939 651.358215,384.792755 
	C658.369995,384.887512 660.088013,386.786011 660.373352,393.684448 
	C663.607788,471.885345 608.328918,530.001221 539.035156,542.022156 
	C535.137207,542.698425 534.160278,544.235535 534.166809,547.832886 
	C534.255249,596.829895 534.275696,645.827148 534.197876,694.824097 
	C534.192078,698.456238 535.370605,699.589722 539.011169,699.924561 
	C559.229309,701.784302 579.437805,703.843994 598.731750,710.829468 
	C603.458069,712.540527 607.959045,714.679321 611.960144,717.752625 
	C620.638550,724.418762 620.694580,734.751709 612.005615,741.395508 
	C603.438538,747.946045 593.275208,750.822388 583.010742,753.022827 
	C546.684509,760.810120 510.011444,761.061340 473.197266,757.496338 
	C457.922424,756.017090 442.828552,753.674805 428.312073,748.466309 
	C422.802612,746.489502 417.415497,744.221558 413.105804,740.090210 
	C406.273071,733.540344 406.413666,724.970703 413.574951,718.744629 
	C420.424652,712.789368 428.876862,710.121277 437.399323,707.699463 
	C453.485779,703.127991 470.045746,701.424011 486.606812,699.895813 
	C490.415863,699.544312 491.773651,698.403076 491.765991,694.518494 
	C491.669342,645.354858 491.633270,596.190735 491.815094,547.027588 
	C491.833038,542.183594 488.865692,542.162109 485.835419,541.651367 
	C462.556274,537.727966 441.531708,528.520569 422.653107,514.459106 
	C392.213470,491.786469 374.235992,461.458923 367.643402,424.205292 
	C365.806091,413.822906 365.408966,403.365021 365.646637,392.860870 
	C365.772736,387.285858 367.978973,385.008514 373.492859,384.762238 
	C375.488983,384.673065 377.491974,384.737427 379.491852,384.732849 
	C388.503296,384.712250 388.503326,384.712372 389.575500,375.702026 
	C396.117767,320.723236 438.687042,276.602814 493.675934,267.920593 
	C504.413635,266.225220 515.241150,266.333435 526.513672,267.136780 
M442.300293,423.309784 
	C443.612335,432.783264 445.966248,441.975128 451.004089,450.183289 
	C465.620239,473.997559 487.209045,484.997162 514.940491,484.737244 
	C542.779541,484.476318 567.869446,466.986450 577.984863,441.070984 
	C585.779663,421.100922 584.294006,400.967560 580.136963,380.662018 
	C574.921387,355.185120 571.923035,329.706177 580.302429,304.274933 
	C581.354004,301.083557 579.533569,299.690826 577.368835,298.237152 
	C560.435974,286.866516 541.821655,279.859039 521.500732,278.490662 
	C490.708710,276.417145 463.369629,285.513855 439.704834,305.526489 
	C436.826904,307.960327 436.124420,309.944183 437.618958,313.554840 
	C445.977478,333.748016 447.210175,354.732880 444.660034,376.263763 
	C442.847809,391.564362 439.661346,406.862183 442.300293,423.309784 
M501.174866,502.226868 
	C512.505188,503.267151 523.746155,502.925964 534.962036,500.731720 
	C584.820312,490.977600 622.204407,449.263672 625.550110,398.515259 
	C627.544922,368.256439 618.338135,341.354828 598.833435,318.076447 
	C596.558777,315.361603 594.463806,312.341583 591.165039,310.686646 
	C589.555542,312.366241 589.415283,314.247284 589.004333,315.998199 
	C585.842285,329.469757 586.107117,343.033173 587.716370,356.679260 
	C589.527100,372.034454 593.535645,387.024231 594.707031,402.506409 
	C595.993896,419.513611 593.609619,435.780396 586.179810,451.063934 
	C570.277527,483.775879 536.887146,500.840607 500.101288,495.466766 
	C465.352112,490.390442 440.115326,467.122894 432.420532,432.888885 
	C428.098755,413.661316 430.766846,394.466309 433.285004,375.338135 
	C435.554108,358.101837 435.086975,341.146667 429.537659,324.539703 
	C428.944153,322.763580 428.821350,320.533508 425.832336,319.448364 
	C401.920166,350.815674 394.023834,385.366821 405.350983,423.614594 
	C417.914734,466.038025 455.941681,497.226898 501.174866,502.226868 
M443.107727,493.465363 
	C429.924591,484.654022 418.792328,473.734680 409.956757,460.581268 
	C398.421661,443.409058 391.409363,424.561981 389.517517,403.870239 
	C388.923767,397.375885 388.158661,397.094788 381.819580,397.125519 
	C376.300751,397.152252 377.245758,400.903595 377.404938,404.068024 
	C378.334320,422.540405 382.170776,440.350159 390.276276,457.066742 
	C417.838013,513.909241 481.447784,542.234070 543.387573,528.846741 
	C597.589661,517.131653 646.518250,472.511719 648.580872,402.209686 
	C648.659424,399.533020 648.652832,396.899750 644.896667,397.238159 
	C641.793518,397.517700 637.508240,395.516876 637.190125,401.458832 
	C636.968994,405.588226 636.069885,409.689789 635.354553,413.782990 
	C625.336731,471.105042 574.508423,515.056702 512.487000,514.762756 
	C487.585968,514.644653 464.524139,507.778778 443.107727,493.465363 
M602.575134,725.873230 
	C589.615784,718.754272 575.255249,716.628296 560.968811,714.342163 
	C552.325562,712.959106 543.627991,711.852844 534.267395,712.099060 
	C534.267395,716.744385 534.356995,721.040894 534.245117,725.332214 
	C534.099976,730.898987 531.812378,733.215027 526.255981,733.273010 
	C517.425537,733.365234 508.592712,733.358337 499.762238,733.265564 
	C494.240692,733.207581 491.907593,730.853027 491.763550,725.318359 
	C491.652100,721.036804 491.741302,716.750000 491.741302,712.022095 
	C475.573395,712.391174 460.320038,714.416382 445.269440,718.058228 
	C438.141937,719.782959 430.996765,721.565308 424.673828,725.458557 
	C419.648438,728.552856 419.665436,730.781799 424.707336,733.583313 
	C427.601868,735.191772 430.677399,736.580872 433.820251,737.617798 
	C448.436829,742.440369 463.557739,744.453186 478.830536,745.992432 
	C510.510956,749.185486 541.995789,747.995361 573.315125,742.595337 
	C583.464355,740.845398 593.609924,738.649414 602.583557,733.089355 
	C605.792664,731.101135 606.942993,728.888550 602.575134,725.873230 
M521.944946,653.500000 
	C521.916992,620.514160 521.902039,587.528381 521.854370,554.542542 
	C521.836853,542.402466 522.930176,544.371704 511.453857,544.209717 
	C504.089569,544.105652 504.055817,544.136292 504.057190,551.565063 
	C504.066772,604.208984 504.056641,656.852966 504.134857,709.496765 
	C504.154510,722.724243 502.355347,720.629272 515.983398,721.005127 
	C520.590027,721.132141 521.995850,719.532043 521.955566,714.972961 
	C521.777466,694.816895 521.919006,674.657898 521.944946,653.500000 
z"/>
</svg>